<svg xmlns="http://www.w3.org/2000/svg" viewBox="0 0 200 200"><defs><style>.a{fill:#a7a7a7;}</style></defs><path class="a" d="M159,57l15.16-15.19a5.85,5.85,0,1,0-8.28-8.27L150.13,49.26a83,83,0,0,0-44.28-16.57V19.42h7.09a9.71,9.71,0,1,0,0-19.42H87.06a9.71,9.71,0,0,0,0,19.42h7.09V32.69A83,83,0,0,0,49.87,49.26L34.13,33.49a5.85,5.85,0,1,0-8.28,8.27L41,57a83.59,83.59,0,1,0,118,0ZM100,179.31A63.07,63.07,0,1,1,163,116.24,63.08,63.08,0,0,1,100,179.31Z"/><path class="a" d="M100,64.88a51.37,51.37,0,1,0,51.25,51.36A51.36,51.36,0,0,0,100,64.88Zm19.47,57.22H100a5.86,5.86,0,0,1-5.85-5.86V88.36a5.85,5.85,0,0,1,11.7,0v22h13.62a5.86,5.86,0,0,1,0,11.71Z"/></svg>