<svg xmlns="http://www.w3.org/2000/svg" viewBox="0 0 200 200"><defs><style>.a{fill:#4c4c4c;stroke:#000;stroke-miterlimit:10;stroke-width:4px;}</style></defs><path class="a" d="M173.72,61,132.77,91.91a3,3,0,0,1-4.83-2.41V66.58H42.65a2,2,0,0,0-1.94,1.93V92.75a3.05,3.05,0,0,1-3.07,3.08h-9.5a3.06,3.06,0,0,1-3.08-3.08V61.26A10.32,10.32,0,0,1,35.39,50.92h92.55V28a3,3,0,0,1,4.83-2.42l40.95,30.57A3,3,0,0,1,173.72,61Z"/><path class="a" d="M26.28,139l41-30.92a3,3,0,0,1,4.83,2.41v22.92h85.29a2,2,0,0,0,1.94-1.93V107.25a3.05,3.05,0,0,1,3.07-3.08h9.5a3.06,3.06,0,0,1,3.08,3.08v31.49a10.32,10.32,0,0,1-10.33,10.34H72.06V172a3,3,0,0,1-4.83,2.42L26.28,143.84A3,3,0,0,1,26.28,139Z"/></svg>