<svg xmlns="http://www.w3.org/2000/svg" viewBox="0 0 200 200"><defs><style>.a{fill:#a7a7a7;}</style></defs><path class="a" d="M99.42,50V150a4.92,4.92,0,0,1-7.85,3.94L48.46,121.76H24.1a1.09,1.09,0,0,1-1.09-1.1V84.8a1.09,1.09,0,0,1,1.09-1.1H41.75l49.8-37.6A4.91,4.91,0,0,1,99.42,50Z"/><path class="a" d="M142,100a54.47,54.47,0,0,1-10.2,31.82,7.71,7.71,0,0,1-11.74,1h0a7.75,7.75,0,0,1-.75-10,39.37,39.37,0,0,0,0-45.62,7.75,7.75,0,0,1,.75-10h0a7.71,7.71,0,0,1,11.74,1A54.47,54.47,0,0,1,142,100Z"/><path class="a" d="M177,100a89.45,89.45,0,0,1-20.89,57.59,7.32,7.32,0,0,1-10.79.51h0a8.22,8.22,0,0,1-.52-11,74.36,74.36,0,0,0-.52-94.78,7.26,7.26,0,0,1,.46-9.8l.58-.59a7.32,7.32,0,0,1,10.79.51A89.45,89.45,0,0,1,177,100Z"/><rect class="a" x="102.21" y="6.79" width="17.84" height="173.12" rx="5.97" transform="translate(-27.39 136.67) rotate(-57.4)"/></svg>