<svg xmlns="http://www.w3.org/2000/svg" viewBox="0 0 860 550"><defs><style>.a{fill:#99aaa1;}.b{fill:#4f4d4c;}</style></defs><path class="a" d="M799.87,32c-.43,0-.85,0-1.28,0H61.09c-.38,0-.75,0-1.12,0l-1.23.09A25.06,25.06,0,0,0,36.43,57.16V406.74H823.58V57.16A25,25,0,0,0,799.87,32ZM247.3,279c-26,0-47-21.34-47-47.68s21.05-47.67,47-47.67,47,21.35,47,47.67S273.27,279,247.3,279Zm363.19,0c-26,0-47-21.34-47-47.68s21-47.67,47-47.67,47,21.35,47,47.67S636.46,279,610.49,279Z"/><path class="b" d="M839.27,0H20.72A20.87,20.87,0,0,0,0,21V529a20.87,20.87,0,0,0,20.72,21H839.27A20.88,20.88,0,0,0,860,529V21A20.88,20.88,0,0,0,839.27,0ZM823.58,406.74H36.26V57.16A25,25,0,0,1,58.74,32.1L60,32c.37,0,.74,0,1.12,0h737.5c.43,0,.85,0,1.28,0a25,25,0,0,1,23.71,25.15Z"/></svg>