<svg xmlns="http://www.w3.org/2000/svg" viewBox="0 0 860 550"><defs><style>.a{fill:#99aaa1;}.b{fill:#4f4d4c;}</style></defs><path class="a" d="M823.58,57.16V406.74H610.49V279c26,0,47-21.34,47-47.68s-21-47.67-47-47.67V32h188.1c.43,0,.85,0,1.28,0A25,25,0,0,1,823.58,57.16Z"/><path class="a" d="M563.47,231.32c0,26.34,21,47.68,47,47.68V406.74H247.3V279c26,0,47-21.34,47-47.68s-21.05-47.67-47-47.67V32H610.49V183.65C584.52,183.65,563.47,205,563.47,231.32Z"/><path class="a" d="M200.28,231.32c0,26.34,21.05,47.68,47,47.68V406.74H36.43V57.16A25.06,25.06,0,0,1,58.74,32.1L60,32c.37,0,.74,0,1.12,0H247.3V183.65C221.33,183.65,200.28,205,200.28,231.32Z"/><path class="b" d="M860,21V529a20.88,20.88,0,0,1-20.73,21H430V406.74H823.58V57.16A25,25,0,0,0,799.87,32c-.43,0-.85,0-1.28,0H430V0H839.27A20.88,20.88,0,0,1,860,21Z"/><path class="b" d="M36.26,57.16V406.74H430V550H20.72A20.87,20.87,0,0,1,0,529V21A20.87,20.87,0,0,1,20.72,0H430V32H61.09c-.38,0-.75,0-1.12,0l-1.23.09A25,25,0,0,0,36.26,57.16Z"/></svg>